<svg width="60" height="60" viewBox="0 0 60 60" xmlns="http://www.w3.org/2000/svg" role="img" aria-labelledby="title desc">
  <title id="title">AquaBill Droplet Icon</title>
  <desc id="desc">Gradient water droplet icon</desc>
  <defs>
    <linearGradient id="g1" x1="0" y1="0" x2="1" y2="1">
      <stop offset="0%" stop-color="#38bdf8"/>
      <stop offset="100%" stop-color="#2563eb"/>
    </linearGradient>
    <filter id="soft" x="-20%" y="-20%" width="140%" height="140%">
      <feGaussianBlur in="SourceAlpha" stdDeviation="1.5" result="blur"/>
      <feOffset in="blur" dx="0" dy="1" result="offset"/>
      <feMerge>
        <feMergeNode in="offset"/>
        <feMergeNode in="SourceGraphic"/>
      </feMerge>
    </filter>
  </defs>

  <!-- Droplet -->
  <g transform="translate(12,6)">
    <path d="M18 0 C18 0, 32 16, 32 28 C32 38.493, 23.493 47, 13 47 C2.507 47, -6 38.493, -6 28 C-6 16, 8 0, 8 0 Z"
          fill="url(#g1)" filter="url(#soft)"/>
    <!-- inner shine -->
    <path d="M8 6 C8 6, 19 17, 19 25 C19 31, 14 36, 8 36 C2 36, -3 31, -3 25 C-3 17, 8 6, 8 6 Z"
          fill="white" opacity="0.18"/>
    <!-- wave -->
    <path d="M-8 28 C 0 24, 8 30, 16 28 C 24 26, 32 30, 36 28" fill="none" stroke="white" stroke-width="2" opacity="0.5"/>
  </g>
</svg>
